<svg xmlns="http://www.w3.org/2000/svg" xml:space="preserve" width="2000" height="125" data-id="lg_LQTW6qeVQ375zeRtO3" data-version="1" viewBox="0 0 2000 125"><g data-padding="20"><g transform="translate(10 2.02)scale(.96769)"><rect width="521.069" height="73.45" x="316.394" y="-374.225" fill="none" rx="0" ry="0" transform="translate(517.21 400)"/><path d="M851.379 65.84v17.08h-12.6v-45.7h24.69q3.21 0 6.15.85 2.93.86 5.18 2.59 2.26 1.73 3.61 4.35t1.35 6.14q0 2.22-.64 4.17-.63 1.95-1.76 3.57t-2.65 2.92-3.33 2.19-3.83 1.37q-2.01.47-4.08.47Zm15.62-14.69q0-4.41-2.24-6.94-2.24-2.52-6.75-2.52h-6.63v19.84h6.63q2.42 0 4.11-.78 1.7-.78 2.78-2.17 1.08-1.4 1.59-3.29t.51-4.14m29.88-13.74q0 1.2-.46 2.28t-1.25 1.87q-.79.8-1.87 1.26t-2.29.46q-1.2 0-2.27-.46-1.06-.46-1.85-1.26-.8-.79-1.26-1.87t-.46-2.28q0-1.21.46-2.27.46-1.07 1.26-1.86.79-.79 1.85-1.25 1.07-.46 2.27-.46 1.21 0 2.29.46t1.87 1.25 1.25 1.86q.46 1.06.46 2.27m-.47 8.88v36.63h-10.76V46.29Zm27.3 16.41 14.09 20.22h-10.72l-8.98-12.85-9.18 12.85h-7.42l13.8-16.89-13.8-19.77h10.72l8.7 12.44 9.46-12.44h7.42Zm27.87 2.83q1.97.44 3.93.69 1.97.26 3.97.26 2.1 0 3.89-.4 1.79-.39 3.11-1.33t2.08-2.49q.76-1.56.76-3.87 0-1.88-.51-3.43-.5-1.56-1.5-2.67t-2.46-1.73-3.4-.62q-1.81 0-3.25.67-1.45.67-2.54 1.79-1.1 1.13-1.87 2.62-.78 1.49-1.29 3.11t-.73 3.27-.22 3.11v.51q0 .25.03.51m26.44-7.24q0 2.25-.73 4.02-.73 1.76-1.99 3.09-1.25 1.33-2.9 2.25t-3.52 1.51q-1.88.59-3.86.84-1.98.26-3.86.26-2.38 0-4.69-.34-2.32-.33-4.57-1.06.35 2.09 1.11 3.98t2.03 3.3q1.27 1.42 3.13 2.24 1.85.83 4.39.83 1.68 0 3.21-.51 1.52-.51 2.79-1.43t2.24-2.19q.96-1.27 1.57-2.82l4.63 1.71q-1.05 2.51-2.87 4.33-1.83 1.83-4.13 3.02t-4.88 1.76q-2.59.57-5.13.57-4.19 0-7.74-1.41-3.56-1.42-6.13-3.95-2.57-2.54-4.03-6.07-1.46-3.52-1.46-7.71t1.46-7.71 4.03-6.06 6.13-3.95q3.55-1.42 7.74-1.42 2.03 0 4.16.29 2.12.28 4.12.9t3.78 1.61q1.78.98 3.09 2.42 1.32 1.45 2.1 3.35.78 1.91.78 4.35m17.42-17.77v42.4h-10.73V29.38h4.13Zm22.25 25.32v17.08h-12.6v-45.7h24.69q3.21 0 6.14.85 2.94.86 5.19 2.59 2.26 1.73 3.61 4.35 1.34 2.62 1.34 6.14 0 2.22-.63 4.17-.64 1.95-1.76 3.57-1.13 1.62-2.65 2.92-1.53 1.3-3.33 2.19-1.81.89-3.83 1.37-2.01.47-4.08.47Zm15.62-14.69q0-4.41-2.24-6.94-2.24-2.52-6.75-2.52h-6.63v19.84h6.63q2.42 0 4.11-.78 1.7-.78 2.78-2.17 1.08-1.4 1.59-3.29t.51-4.14m55.54-4.89v36.66h-10.73v-4.38q-1.9 2.6-4.59 3.86-2.68 1.25-5.88 1.25-4.19 0-7.49-1.49t-5.59-4.08-3.49-6.08q-1.21-3.49-1.21-7.49t1.21-7.49q1.2-3.49 3.49-6.08 2.29-2.58 5.59-4.08 3.3-1.49 7.49-1.49 2.12 0 4.04.64 1.92.63 3.53 1.79 1.6 1.16 2.82 2.79 1.22 1.64 1.92 3.64l4.76-7.97Zm-10.79 18.25q0-1.43-.15-3.01-.14-1.59-.49-3.15-.35-1.55-.97-2.96-.62-1.42-1.58-2.51-.97-1.1-2.34-1.73-1.36-.64-3.17-.64t-3.14.65q-1.34.66-2.29 1.75-.95 1.1-1.57 2.52-.62 1.43-.97 2.99-.35 1.55-.49 3.12t-.14 2.97.14 2.98q.14 1.59.49 3.15.35 1.55.97 2.98t1.57 2.52q.95 1.1 2.29 1.75 1.33.65 3.14.65 1.65 0 2.94-.68 1.28-.69 2.25-1.83t1.63-2.6q.67-1.46 1.08-3.02.42-1.55.61-3.09t.19-2.81m50.9-15-6.03 10q-.38-1.27-.98-2.86t-1.49-2.97-2.13-2.31q-1.24-.94-2.85-.94-1.5 0-2.59.76-1.1.76-1.86 1.98-.76 1.23-1.25 2.77-.49 1.53-.76 3.11-.27 1.57-.37 3.01-.09 1.45-.09 2.49v18.38h-10.76V46.27h4.12l4.35 8.54q.89-2.06 2.03-3.79 1.15-1.73 2.64-2.99 1.49-1.25 3.38-1.95t4.27-.7q1.23 0 2.76.21 1.52.21 2.98.7t2.7 1.28q1.24.8 1.93 1.94m41.39-3.25v36.66h-10.73v-4.38q-1.9 2.6-4.58 3.86-2.68 1.25-5.89 1.25-4.19 0-7.49-1.49t-5.59-4.08q-2.28-2.59-3.49-6.08-1.2-3.49-1.2-7.49t1.2-7.49q1.21-3.49 3.49-6.08 2.29-2.58 5.59-4.08 3.3-1.49 7.49-1.49 2.13 0 4.05.64 1.92.63 3.52 1.79t2.82 2.79q1.23 1.64 1.92 3.64l4.77-7.97Zm-10.79 18.25q0-1.43-.14-3.01-.15-1.59-.49-3.15-.35-1.55-.97-2.96-.62-1.42-1.59-2.51-.97-1.1-2.33-1.73-1.37-.64-3.18-.64t-3.14.65q-1.33.66-2.28 1.75-.96 1.1-1.57 2.52-.62 1.43-.97 2.99-.35 1.55-.49 3.12-.15 1.57-.15 2.97t.15 2.98q.14 1.59.49 3.15.35 1.55.97 2.98.61 1.43 1.57 2.52.95 1.1 2.28 1.75t3.14.65q1.65 0 2.94-.68 1.29-.69 2.25-1.83.97-1.14 1.64-2.6.66-1.46 1.08-3.02.41-1.55.6-3.09t.19-2.81m56.67-31.74v50.15h-4.12l-4.76-7.97q-.7 2-1.92 3.62t-2.83 2.78q-1.6 1.16-3.52 1.79-1.92.64-4.05.64-4.19 0-7.49-1.5-3.3-1.49-5.58-4.07-2.29-2.59-3.49-6.08-1.21-3.49-1.21-7.49t1.21-7.49q1.2-3.49 3.49-6.06 2.28-2.58 5.58-4.07t7.49-1.49q3.21 0 5.89 1.24t4.59 3.87V32.77Zm-10.79 31.87q0-1.27-.19-2.8-.19-1.52-.6-3.07-.41-1.56-1.08-3.02t-1.63-2.6q-.97-1.14-2.26-1.83-1.28-.68-2.93-.68-1.81 0-3.14.65-1.34.65-2.29 1.75-.95 1.09-1.57 2.52t-.97 2.98q-.35 1.56-.49 3.13t-.14 2.97q0 1.39.14 2.97.14 1.57.49 3.12.35 1.56.97 3t1.57 2.54q.95 1.09 2.29 1.75 1.33.65 3.14.65t3.17-.64q1.37-.63 2.33-1.73.97-1.09 1.59-2.51.62-1.41.97-2.98t.49-3.16q.14-1.58.14-3.01m31.02-27.23q0 1.2-.46 2.28t-1.25 1.87q-.8.8-1.87 1.26-1.08.46-2.29.46t-2.27-.46-1.86-1.26q-.79-.79-1.25-1.87t-.46-2.28q0-1.21.46-2.27.46-1.07 1.25-1.86.8-.79 1.86-1.25t2.27-.46 2.29.46q1.07.46 1.87 1.25.79.79 1.25 1.86.46 1.06.46 2.27m-.47 8.88v36.63h-10.76V46.29Zm40.53 24.92q0 2.41-.7 4.28t-1.91 3.26q-1.2 1.38-2.85 2.31-1.65.94-3.54 1.51t-3.95.83q-2.07.25-4.1.25-2.73 0-4.82-.35-2.1-.35-4-1.13-1.91-.77-3.79-2.01-1.89-1.24-4.21-3.02l6.25-5.11q.86 1.62 2.27 2.94 1.42 1.32 2.94 2.27t2.95 1.46 2.32.51q.73 0 1.65-.05t1.87-.19q.95-.15 1.87-.43.92-.29 1.64-.78.71-.49 1.14-1.24.43-.74.43-1.79 0-1.08-.56-1.89-.55-.81-1.44-1.41t-2.03-1.02q-1.15-.41-2.3-.73-1.16-.31-2.24-.55t-1.87-.46q-1.46-.41-3.08-.84t-3.21-.99q-1.58-.55-3.03-1.31-1.44-.77-2.54-1.83-1.09-1.06-1.74-2.51-.65-1.44-.65-3.38 0-3.55 1.41-5.95 1.41-2.39 3.73-3.84 2.31-1.44 5.27-2.04 2.95-.61 5.99-.61 2.1 0 4.42.43 2.31.43 4.5 1.27t4.1 2.05q1.9 1.2 3.17 2.76l-6.25 5.14q-.7-1.9-1.83-3.27-1.12-1.36-2.44-2.24-1.32-.87-2.7-1.28t-2.55-.41q-1.15 0-2.57.09-1.43.1-2.69.54-1.25.45-2.12 1.35t-.87 2.49q0 1.14.52 1.95t1.38 1.4 1.95.98q1.1.4 2.24.7t2.22.53q1.08.22 1.94.47 1.46.41 3.09.84 1.64.43 3.22.99 1.59.55 3.07 1.3 1.47.74 2.58 1.82t1.78 2.53q.67 1.44.67 3.41m15.58-5.68q1.97.44 3.93.69 1.97.26 3.97.26 2.1 0 3.89-.4 1.79-.39 3.11-1.33t2.08-2.49q.76-1.56.76-3.87 0-1.88-.51-3.43-.5-1.56-1.5-2.67t-2.46-1.73-3.4-.62q-1.81 0-3.25.67-1.45.67-2.54 1.79-1.1 1.13-1.87 2.62-.78 1.49-1.29 3.11t-.73 3.27-.22 3.11v.51q0 .25.03.51m26.44-7.24q0 2.25-.73 4.02-.73 1.76-1.99 3.09-1.25 1.33-2.9 2.25t-3.52 1.51q-1.88.59-3.86.84-1.98.26-3.86.26-2.38 0-4.69-.34-2.32-.33-4.57-1.06.35 2.09 1.11 3.98t2.03 3.3q1.27 1.42 3.13 2.24 1.85.83 4.39.83 1.68 0 3.21-.51 1.52-.51 2.79-1.43t2.24-2.19q.96-1.27 1.57-2.82l4.63 1.71q-1.05 2.51-2.87 4.33-1.83 1.83-4.13 3.02t-4.88 1.76q-2.59.57-5.13.57-4.19 0-7.74-1.41-3.56-1.42-6.13-3.95-2.57-2.54-4.03-6.07-1.46-3.52-1.46-7.71t1.46-7.71 4.03-6.06 6.13-3.95q3.55-1.42 7.74-1.42 2.03 0 4.16.29 2.12.28 4.12.9t3.78 1.61q1.78.98 3.1 2.42 1.31 1.45 2.09 3.35.78 1.91.78 4.35"/><path fill="#fff" stroke="#000" stroke-width="4.44" d="M761.459.231a62.269 62.269 0 1 0 0 124.538 62.269 62.269 0 1 0 0-124.538Z"/><path fill="#ff4f00" fill-rule="evenodd" d="M744.354 44.084c-1.084 6.712.306 13.811 6.045 17.709-5.847-26.09 8.1-36.455 21.018-43.583-15.047 21.433 15.714 21.989 17.463 46.62 1.493 21-12.942 37.375-29.559 44.52.192-21.227-20.972-24.118-23.1-41.48-.833-6.793 3.033-19.188 8.133-23.786"/></g><path fill="transparent" stroke="transparent" d="M712.114 0h619v125h-619z"/></g></svg>